<svg xmlns="http://www.w3.org/2000/svg" version="1.1" xmlns:xlink="http://www.w3.org/1999/xlink" xmlns:svgjs="http://svgjs.dev/svgjs" width="300" height="300" viewBox="0 0 1500 1500"><rect width="1500" height="1500" fill="#853439"></rect><g transform="matrix(0.6666666666666666,0,0,0.6666666666666666,249.39393939393932,605.3264075040167)"><svg viewBox="0 0 396 115" data-background-color="#853439" preserveAspectRatio="xMidYMid meet" height="435" width="1500" xmlns="http://www.w3.org/2000/svg" xmlns:xlink="http://www.w3.org/1999/xlink"><g id="tight-bounds" transform="matrix(1,0,0,1,0.24000000000003752,-0.12943745848937738)"><svg viewBox="0 0 395.5199999999999 115.25887491697875" height="115.25887491697875" width="395.5199999999999"><g><svg viewBox="0 0 764.6275088428681 222.82085962732913" height="115.25887491697875" width="395.5199999999999"><g><rect width="19.994243853054407" height="222.82085962732913" x="447.8609524949068" y="0" fill="#fe5e30" opacity="1" stroke-width="0" stroke="transparent" fill-opacity="1" class="rect-qz-0" data-fill-palette-color="primary" rx="1%" id="qz-0" data-palette-color="#fe5e30"></rect></g><g transform="matrix(1,0,0,1,0,0.5542807453416003)"><svg viewBox="0 0 395.52 221.71229813664593" height="221.71229813664593" width="395.52"><g id="textblocktransform"><svg viewBox="0 0 395.52 221.71229813664593" height="221.71229813664593" width="395.52" id="textblock"><g><svg viewBox="0 0 395.52 221.71229813664593" height="221.71229813664593" width="395.52"><g transform="matrix(1,0,0,1,0,0)"><svg width="395.52" viewBox="2.75 -35.5 64.9 36.1" height="221.71229813664593" data-palette-color="#fe5e30"><g class="wordmark-text-0" data-fill-palette-color="primary" id="text-0"><path d="M2.75 0L2.75-2.3 6.5-2.3 6.5-32.6 2.75-32.6 2.75-34.9 19.05-34.9Q23.7-34.9 26.28-32.58 28.85-30.25 28.85-25.65L28.85-25.65Q28.85-22.1 26.88-19.73 24.9-17.35 21.1-16.65L21.1-16.65 26.95-5.8Q27.95-4 29.2-3.15 30.45-2.3 32.3-2.3L32.3-2.3 32.75-2.3 32.75 0 29.55 0Q28.1 0 27.13-0.3 26.15-0.6 25.4-1.15 24.65-1.7 24.08-2.55 23.5-3.4 22.9-4.5L22.9-4.5 16.7-16.05 10.8-16.05 10.8-2.3 14.55-2.3 14.55 0 2.75 0ZM10.8-32.45L10.8-18.5 18.65-18.5Q21.35-18.5 22.8-20.18 24.25-21.85 24.25-24.3L24.25-24.3 24.25-26.6Q24.25-29.05 22.8-30.75 21.35-32.45 18.65-32.45L18.65-32.45 10.8-32.45ZM50.65 0.6L50.65 0.6Q47.35 0.6 44.67-0.65 42-1.9 40.1-4.23 38.2-6.55 37.15-9.9 36.1-13.25 36.1-17.45L36.1-17.45Q36.1-21.8 37.15-25.18 38.2-28.55 40.15-30.85 42.1-33.15 44.87-34.33 47.65-35.5 51.1-35.5L51.1-35.5Q55.15-35.5 57.35-34.38 59.55-33.25 60.15-31.7L60.15-31.7 60.4-31.7 60.4-34.9 64-34.9 64-24.7 60.4-24.7 60.4-27.15Q60.4-29.95 58.05-31.4 55.7-32.85 51.65-32.85L51.65-32.85Q48.9-32.85 46.87-31.98 44.85-31.1 43.52-29.5 42.2-27.9 41.55-25.68 40.9-23.45 40.9-20.7L40.9-20.7 40.9-14.3Q40.9-11.6 41.62-9.38 42.35-7.15 43.7-5.6 45.05-4.05 46.95-3.2 48.85-2.35 51.15-2.35L51.15-2.35Q53.05-2.35 54.7-2.85 56.35-3.35 57.55-4.3 58.75-5.25 59.42-6.65 60.1-8.05 60.1-9.9L60.1-9.9 60.1-14.55 53.9-14.55 53.9-16.85 67.65-16.85 67.65-14.55 64.45-14.55 64.45 0 62.8 0 60.4-4.85 60.2-4.85Q59.8-3.85 59-2.88 58.2-1.9 57.02-1.13 55.85-0.35 54.25 0.13 52.65 0.6 50.65 0.6Z" fill="#fe5e30" data-fill-palette-color="primary"></path></g></svg></g></svg></g></svg></g></svg></g><g transform="matrix(1,0,0,1,520.1961488428681,9.091142275189384)"><svg viewBox="0 0 244.43135999999998 204.63857507695036" height="204.63857507695036" width="244.43135999999998"><g><svg xmlns="http://www.w3.org/2000/svg" xmlns:xlink="http://www.w3.org/1999/xlink" version="1.1" x="0" y="0" viewBox="1.6346689142937865 9.322692308394988 96.36533108570622 80.67730769160501" enable-background="new 0 0 100 100" xml:space="preserve" height="204.63857507695036" width="244.43135999999998" class="icon-icon-0" data-fill-palette-color="accent" id="icon-0"><g fill="#e7d6ce" data-fill-palette-color="accent"><path fill="#e7d6ce" d="M43.536 87.811c-1.23 0-2.904-0.453-4.566-2.334v0.002c-0.009 0-2.014-1.881-5.433-4.484C31.385 80.1 13.582 72.025 16.318 50.91c0.098-0.762 0.792-1.305 1.558-1.199 0.761 0.098 1.297 0.795 1.199 1.557-2.61 20.127 14.895 26.924 15.642 27.203l0.354 0.197c3.702 2.811 5.807 4.797 5.894 4.879 0.979 1.102 1.844 1.568 2.761 1.479 1.849-0.16 3.671-2.48 4.166-3.281l1.217-1.977 1.168 2.008c0.733 1.266 2.491 2.277 4.375 2.521 1.19 0.152 2.225-0.045 2.699-0.521 1.902-1.906 6.295-3.557 7.187-3.877 15.446-8.559 19.01-30.359 19.043-30.579l0.137-0.866 0.838-0.251c8.355-2.5 10.3-9.683 10.611-11.136-0.277-1.302-1.231-6.59-0.968-16.593 0.073-2.769 0.054-4.681-0.004-6-1.708 2.39-7.851 10.159-15.843 10.709C70.403 25.732 60.925 37.967 60.83 38.09c-0.466 0.607-1.337 0.725-1.948 0.256-0.607-0.467-0.724-1.339-0.256-1.948 0.418-0.545 10.351-13.354 19.533-13.988 7.301-0.503 13.213-8.729 14.063-9.971 0.702-2.296 1.6-3.281 2.786-3.094 1.531 0.239 2.223 1.421 1.967 11.201-0.29 10.97 0.943 16.111 0.956 16.162L98 36.983l-0.044 0.282c-0.067 0.411-1.694 9.852-11.781 13.333-0.829 4.338-5.279 23.494-20.397 31.789l-0.206 0.094c-1.292 0.457-4.935 1.934-6.253 3.256-1.103 1.107-2.934 1.586-5.024 1.318-1.979-0.258-3.844-1.123-5.166-2.342-1.096 1.27-2.914 2.887-5.166 3.078C43.826 87.803 43.685 87.811 43.536 87.811z" data-fill-palette-color="accent"></path><path fill="#e7d6ce" d="M16.076 55.553c-1.855 0-4.002-1.223-6.036-3.477-3.5-3.873-6.338-10.562-4.305-16.098 1.726-4.698 1.314-15.294 1.311-15.4l-0.023-0.551 0.187-0.213c-0.058-0.296-0.425-1.364-2.831-3.289-1.988-1.59-3.092-2.554-2.646-3.82 0.401-1.139 1.59-1.13 2.451-1.134 0.506 0.006 1.113 0.004 1.5-0.132 2.202-0.767 8.398 0.061 9.62 0.235l0.514 0.074 0.341 0.394c0.007 0.006 1.92 2.055 8.669 5.012 6.371 2.793 9.945 11.04 11.109 14.186 11.56-2.366 25.384 1.712 25.985 1.893 0.734 0.221 1.152 0.995 0.933 1.73-0.22 0.732-0.994 1.148-1.731 0.932-0.145-0.044-14.717-4.34-25.759-1.577l-1.275 0.318L33.7 33.38c-0.032-0.108-3.392-10.787-9.988-13.678-5.826-2.554-8.348-4.512-9.251-5.338-2.764-0.367-6.767-0.681-7.861-0.301-0.209 0.074-0.425 0.128-0.64 0.169 0.051 0.04 0.102 0.082 0.154 0.124 2.46 1.968 3.727 3.687 3.868 5.252 0.047 0.505-0.035 0.91-0.149 1.211 0.062 1.975 0.254 11.369-1.491 16.117-1.561 4.255 0.708 9.9 3.759 13.276 1.831 2.027 3.456 2.732 4.254 2.529 0.742-0.193 1.503 0.258 1.691 1.002 0.189 0.742-0.259 1.5-1.002 1.689C16.731 55.514 16.409 55.553 16.076 55.553z" data-fill-palette-color="accent"></path><path fill="#e7d6ce" d="M15.305 44.904c-0.253 0-0.508-0.069-0.739-0.214-3.671-2.312-3.709-9.851-3.457-16.734 0.036-0.961 0.074-2.034 0.054-2.518-1.047-1.558-0.924-5.146-0.604-6.096 0.413-1.23 1.401-1.58 2.197-1.379 1.092 0.273 2.012 1.17 2.569 1.844 1.755-0.214 5.602-0.451 7.836 1.205 0.97 0.719 1.555 1.728 1.693 2.919 0.362 3.106 5.141 8.28 6.951 10.013 0.553 0.53 0.574 1.41 0.044 1.964-0.531 0.553-1.41 0.573-1.964 0.043-0.74-0.708-7.249-7.052-7.791-11.7-0.05-0.433-0.232-0.743-0.587-1.007-1.381-1.026-4.753-0.9-6.553-0.576l-0.909 0.162-0.503-0.774c-0.126-0.192-0.288-0.401-0.459-0.596 0.02 0.834 0.143 1.822 0.299 2.292 0.643 0.518 0.607 1.509 0.505 4.303-0.14 3.779-0.464 12.629 2.16 14.282 0.648 0.409 0.844 1.268 0.434 1.917C16.218 44.675 15.767 44.904 15.305 44.904z" data-fill-palette-color="accent"></path><path fill="#e7d6ce" d="M20.486 44.507c-0.169 0-0.342-0.031-0.51-0.097-3.396-1.337-4.446-8.302-4.426-10.551 0.006-0.636 0.02-2.126 1.216-2.572 0.245-0.093 1.102-0.32 1.87 0.552 0.416 0.468 1.825-0.398 2.345-0.836 0.58-0.492 1.457-0.425 1.956 0.159 0.495 0.583 0.429 1.457-0.153 1.955-1.025 0.876-2.831 1.888-4.455 1.594 0.189 2.406 1.304 6.578 2.666 7.114 0.713 0.281 1.064 1.087 0.784 1.801C21.562 44.172 21.04 44.507 20.486 44.507z" data-fill-palette-color="accent"></path><path fill="#e7d6ce" d="M70.486 42.016c-0.174 0-0.35-0.032-0.521-0.101-0.709-0.287-1.054-1.096-0.769-1.807 0.502-1.247 3.199-7.479 7.036-7.839 1.801-0.167 5.485-3.712 7.525-6.175 0.492-0.59 1.367-0.673 1.956-0.184 0.592 0.49 0.673 1.365 0.185 1.956-0.942 1.139-5.826 6.835-9.407 7.169-1.592 0.15-3.756 3.735-4.717 6.111C71.556 41.688 71.035 42.016 70.486 42.016z" data-fill-palette-color="accent"></path><path fill="#e7d6ce" d="M77.855 39.824c-0.69 0-1.288-0.514-1.377-1.217-0.095-0.761 0.444-1.454 1.203-1.55l0 0c0.034-0.004 3.445-0.47 5.05-2.556 0.469-0.609 1.341-0.722 1.948-0.254 0.609 0.468 0.722 1.34 0.255 1.948-2.318 3.014-6.72 3.595-6.905 3.618C77.972 39.82 77.914 39.824 77.855 39.824z" data-fill-palette-color="accent"></path><path fill="#e7d6ce" d="M83.239 47.293c-0.487 0-0.959-0.257-1.214-0.711-1.302-2.327-3.116-1.692-3.191-1.664-0.718 0.267-1.518-0.104-1.782-0.825s0.104-1.519 0.824-1.783c1.42-0.521 4.62-0.583 6.575 2.915 0.374 0.67 0.134 1.516-0.535 1.891C83.702 47.236 83.469 47.293 83.239 47.293z" data-fill-palette-color="accent"></path><path fill="#e7d6ce" d="M89.012 35.143c-0.566 0-1.097-0.348-1.304-0.909-0.241-0.657-2.29-6.507 0.223-9.62 0.479-0.597 1.357-0.69 1.953-0.209 0.597 0.482 0.69 1.357 0.209 1.954-1.295 1.605-0.246 5.632 0.223 6.917 0.263 0.72-0.104 1.518-0.824 1.783C89.333 35.115 89.171 35.143 89.012 35.143z" data-fill-palette-color="accent"></path><path fill="#e7d6ce" d="M48.872 82.549c-2.691 0-3.035-1.488-3.077-1.945l-0.025-0.336c-0.005-0.055-0.009-0.123-0.015-0.197-0.553 0.459-1.201 0.707-1.866 0.707-1.446 0-2.714-1.135-3.018-2.703-0.268-1.389 0.308-3.363 2.804-4.361h-0.002c-0.013 0 2.465-1.266 5.577-1.266 1.968 0 3.763 0.496 5.336 1.475 2.534 1.576 2.513 3.213 2.276 4.045-0.579 2.025-3.294 2.812-4.878 2.27 0.088 0.324 0.068 0.672-0.065 1C51.469 82.322 50.013 82.549 48.872 82.549zM48.515 79.752c0.055 0.008 0.113 0.012 0.18 0.016-0.11-0.604-0.05-1.242 0.197-1.838 0.396-0.957 1.195-1.553 2.083-1.553 0.458 0 1.304 0.166 1.944 1.238 0.041 0.01 0.104 0.02 0.191 0.02 0.503 0 0.993-0.277 1.078-0.434l0 0c-0.023 0-0.175-0.363-1.07-0.92-1.127-0.701-2.427-1.057-3.868-1.057-2.416 0-4.403 1.002-4.424 1.012-0.558 0.23-1.285 0.617-1.237 1.227 0.023 0.303 0.225 0.512 0.306 0.537 0.001-0.006 0.064-0.035 0.165-0.146 0.496-0.545 1.268-1.273 2.24-1.273C48.116 76.58 48.414 78.553 48.515 79.752z" data-fill-palette-color="accent"></path><path fill="#e7d6ce" d="M63.585 70.781c-1.521 0-3.66-0.297-5.102-1.131l-0.378-0.219-0.187-0.398c-0.09-0.193-2.181-4.791 0.217-8.215l0.239-0.344 0.39-0.152c0.077-0.031 1.896-0.736 4.062-0.736 2.615 0 4.694 1.01 6.014 2.924l0.257 0.369-0.011 0.449c-0.032 1.588-0.291 5.416-1.985 6.625C66.141 70.639 64.66 70.781 63.585 70.781zM60.272 67.439c0.832 0.338 2.114 0.564 3.312 0.564 1.201 0 1.779-0.227 1.9-0.312 0.349-0.352 0.715-2.162 0.807-3.945-0.797-0.93-1.936-1.383-3.466-1.383-1.096 0-2.096 0.246-2.633 0.406C59.351 64.393 59.953 66.539 60.272 67.439z" data-fill-palette-color="accent"></path><path fill="#e7d6ce" d="M32.618 71.973c-1.679 0-3.085-0.279-3.143-0.291l-0.554-0.109-0.318-0.467c-0.113-0.164-2.738-4.049-1.796-7.705l0.116-0.443 0.354-0.291c0.101-0.078 2.447-1.949 6.052-1.949 1.406 0 2.822 0.283 4.21 0.846l0.567 0.229 0.214 0.572c0.216 0.578 2.042 5.727-0.569 8.09C36.64 71.461 34.911 71.973 32.618 71.973zM30.603 69.051c0.481 0.066 1.216 0.143 2.016 0.143 1.539 0 2.7-0.285 3.271-0.799 0.792-0.719 0.46-3 0.023-4.471-0.861-0.285-1.727-0.428-2.582-0.428-1.873 0-3.281 0.689-3.92 1.076C29.201 66.291 30.113 68.182 30.603 69.051z" data-fill-palette-color="accent"></path><path fill="#e7d6ce" d="M48.916 90c-0.542 0-1.069-0.049-1.586-0.15-2.896-0.568-4.254-2.514-4.399-2.732-0.423-0.641-0.246-1.504 0.393-1.928 0.636-0.42 1.492-0.248 1.917 0.385 0.134 0.189 2.924 3.971 9.719-0.67 0.637-0.432 1.499-0.27 1.933 0.363 0.432 0.633 0.27 1.498-0.364 1.93C53.798 89.062 51.245 90 48.916 90z" data-fill-palette-color="accent"></path><path fill="#e7d6ce" d="M32.403 70.047c-1.508 0-2.109-0.951-2.749-1.957l-0.23-0.361c-1.065-1.648 0.01-3.652 1.548-4.906l0.24-0.195 0.301-0.076c0.416-0.104 0.812-0.156 1.184-0.156 2.146 0 2.939 1.678 3.322 2.482 0.074 0.158 0.178 0.375 0.228 0.441 0.466 0.582 0.562 1.342 0.264 2.084-0.533 1.328-2.289 2.438-3.531 2.602C32.767 70.033 32.576 70.047 32.403 70.047zM32.495 65.188c-0.389 0.387-0.727 0.877-0.723 1.082l0.229 0.332c0.158 0.252 0.336 0.531 0.444 0.666 0.051-0.002 0.105-0.008 0.164-0.016 0.333-0.045 0.87-0.389 1.154-0.672-0.094-0.17-0.175-0.342-0.256-0.512C33.018 65.033 32.91 65.129 32.495 65.188z" data-fill-palette-color="accent"></path><path fill="#e7d6ce" d="M62.544 68.807c-1.509 0-2.112-0.949-2.751-1.953l-0.235-0.367c-1.062-1.648 0.012-3.65 1.55-4.904l0.241-0.195 0.301-0.076c0.414-0.104 0.813-0.156 1.183-0.156 2.145 0 2.94 1.676 3.322 2.48 0.075 0.158 0.179 0.375 0.229 0.441 0.465 0.582 0.56 1.34 0.263 2.082-0.529 1.326-2.285 2.438-3.527 2.605C62.904 68.793 62.714 68.807 62.544 68.807zM62.632 63.945c-0.39 0.387-0.729 0.879-0.726 1.084l0.232 0.332c0.159 0.252 0.337 0.529 0.445 0.666 0.051-0.004 0.105-0.01 0.165-0.018 0.33-0.043 0.867-0.387 1.152-0.672-0.096-0.17-0.177-0.342-0.257-0.514C63.155 63.799 63.059 63.891 62.632 63.945z" data-fill-palette-color="accent"></path></g></svg></g></svg></g></svg></g><defs></defs></svg><rect width="395.5199999999999" height="115.25887491697875" fill="none" stroke="none" visibility="hidden"></rect></g></svg></g></svg>