<svg xmlns="http://www.w3.org/2000/svg" version="1.1" xmlns:xlink="http://www.w3.org/1999/xlink" xmlns:svgjs="http://svgjs.dev/svgjs" width="310" height="310" viewBox="0 0 2000 2250"><g transform="matrix(1,0,0,1,0,0)"><svg viewBox="0 0 320 360" data-background-color="#ffffff" preserveAspectRatio="xMidYMid meet" height="2250" width="2000" xmlns="http://www.w3.org/2000/svg" xmlns:xlink="http://www.w3.org/1999/xlink"><g id="tight-bounds" transform="matrix(1,0,0,1,0,0)"><svg viewBox="0 0 320 360" height="360" width="320"><g><svg></svg></g><g><svg viewBox="0 0 320 360" height="360" width="320"><g><path d="M297.491 100.645c-12.426-21.51-112.674-79.355-137.491-79.355-24.817 0-125.028 57.845-137.491 79.355-11.591 20.02-11.591 138.726 0 158.746 12.463 21.474 112.674 79.319 137.491 79.319 24.817 0 125.064-57.845 137.491-79.355 11.591-20.02 11.591-138.69 0-158.71zM309.481 93.705c-14.461-24.998-119.469-86.295-149.481-86.295-30.012 0-135.02 61.297-149.481 86.295-14.025 24.199-14.025 148.391 0 172.59 14.461 24.998 119.469 86.295 149.481 86.295 30.012 0 135.02-61.297 149.481-86.259 14.025-24.235 14.025-148.427 0-172.626zM300.906 261.353c-12.753 22.055-115.472 81.317-140.906 81.318-25.434 0-128.153-59.298-140.906-81.354-11.881-20.529-11.881-142.178 0-162.707 12.753-22.019 115.472-81.281 140.906-81.281 25.434 0 128.153 59.298 140.906 81.318 11.881 20.529 11.881 142.178 0 162.706z" fill="#ea3c12" fill-rule="nonzero" stroke="none" stroke-width="1" stroke-linecap="butt" stroke-linejoin="miter" stroke-miterlimit="10" stroke-dasharray="" stroke-dashoffset="0" font-family="none" font-weight="none" font-size="none" text-anchor="none" style="mix-blend-mode: normal" data-fill-palette-color="tertiary"></path></g><g transform="matrix(1,0,0,1,48,107.84229390681004)"><svg viewBox="0 0 224 144.31541218637992" height="144.31541218637992" width="224"><g><svg viewBox="0 0 224 144.31541218637992" height="144.31541218637992" width="224"><g><svg viewBox="0 0 224 144.31541218637992" height="144.31541218637992" width="224"><g id="textblocktransform"><svg viewBox="0 0 224 144.31541218637992" height="144.31541218637992" width="224" id="textblock"><g><svg viewBox="0 0 224 144.31541218637992" height="144.31541218637992" width="224"><g transform="matrix(1,0,0,1,0,0)"><svg width="224" viewBox="2.5 -35.45 55.8 35.95" height="144.31541218637992" data-palette-color="#ffffff"><path d="M12.05-12.05L12.05-0.7Q12.05 0.1 7.3 0.1L7.3 0.1Q2.5 0.1 2.5-0.65L2.5-0.65 2.5-33.25Q2.5-35 4.35-35L4.35-35 13.9-35Q27.05-35 27.05-24.75L27.05-24.75Q27.05-21.65 25.85-19.13 24.65-16.6 22.45-15.1L22.45-15.1 28.75-4.6Q28.35-3.4 26.15-1.85L26.15-1.85Q23.15 0.3 21.2 0.3 19.25 0.3 18.3-1.1L18.3-1.1 13.6-12.05 12.05-12.05ZM13.1-26.15L12.05-26.15 12.05-18.65 12.3-18.65Q17.05-18.65 17.05-22.6L17.05-22.6Q17.05-24.4 16.13-25.28 15.2-26.15 13.1-26.15L13.1-26.15ZM50.5-10.45L50.5-10.45 50.6-17.25Q50.6-17.95 52.05-18.18 53.5-18.4 54.45-18.4L54.45-18.4 56.4-18.25Q58.3-17.95 58.3-17.2L58.3-17.2 58.1-1.55Q57.1-0.85 54.07-0.18 51.05 0.5 47.15 0.5L47.15 0.5Q39.9 0.5 35.45-4.2 31-8.9 31-18L31-18Q31-25.75 35.35-30.6 39.7-35.45 47.4-35.45L47.4-35.45Q50.9-35.45 53.72-34.77 56.55-34.1 57.6-32.95L57.6-32.95Q57.65-32.55 57.65-31.45 57.65-30.35 56.9-28.33 56.15-26.3 55.2-25.3 54.25-24.3 53.82-24.3 53.4-24.3 52.92-24.68 52.45-25.05 51.05-25.48 49.65-25.9 48.35-25.9L48.35-25.9Q45.25-25.9 43.32-23.9 41.4-21.9 41.4-17.7 41.4-13.5 43.37-11.33 45.35-9.15 47.92-9.15 50.5-9.15 50.5-10.45Z" opacity="1" transform="matrix(1,0,0,1,0,0)" fill="#ffffff" class="wordmark-text-0" data-fill-palette-color="quaternary" id="text-0"></path></svg></g></svg></g></svg></g></svg></g><g></g></svg></g></svg></g></svg></g><defs></defs></svg><rect width="320" height="360" fill="none" stroke="none" visibility="hidden"></rect></g></svg></g></svg>