<svg xmlns="http://www.w3.org/2000/svg" version="1.1" xmlns:xlink="http://www.w3.org/1999/xlink" xmlns:svgjs="http://svgjs.dev/svgjs" width="400" height="400" viewBox="0 0 2000 2000"><g transform="matrix(1,0,0,1,-0.28443113772425477,-0.28443113772459583)"><svg viewBox="0 0 334 334" data-background-color="#efefef" preserveAspectRatio="xMidYMid meet" height="2000" width="2000" xmlns="http://www.w3.org/2000/svg" xmlns:xlink="http://www.w3.org/1999/xlink"><g id="tight-bounds" transform="matrix(1,0,0,1,0.04749999999998522,0.04750000000001364)"><svg viewBox="0 0 333.90454557049503 333.90454557049503" height="333.90454557049503" width="333.90454557049503"><g><svg></svg></g><g><svg viewBox="0 0 333.90454557049503 333.90454557049503" height="333.90454557049503" width="333.90454557049503"><g><path d="M0 166.952c0-92.205 74.747-166.952 166.952-166.952 92.205 0 166.952 74.747 166.953 166.952 0 92.205-74.747 166.952-166.953 166.953-92.205 0-166.952-74.747-166.952-166.953zM166.952 332.107c91.212 0 165.155-73.942 165.155-165.155 0-91.212-73.942-165.155-165.155-165.154-91.212 0-165.155 73.942-165.154 165.154 0 91.212 73.942 165.155 165.154 165.155z" data-fill-palette-color="tertiary" fill="#d94e28" stroke="transparent"></path><ellipse rx="160.27418187383762" ry="160.27418187383762" cx="166.95227278524752" cy="166.95227278524752" fill="#d94e28" stroke="transparent" stroke-width="0" fill-opacity="1" data-fill-palette-color="tertiary"></ellipse></g><g transform="matrix(1,0,0,1,111.78106037605176,71.17305217166896)"><svg viewBox="0 0 110.34242481839152 191.55844122715712" height="191.55844122715712" width="110.34242481839152"><g><svg viewBox="0 0 213.15844122715708 370.0507651802029" height="191.55844122715712" width="110.34242481839152"><g transform="matrix(1,0,0,1,0,143.952526982996)"><svg viewBox="0 0 213.15844122715708 226.09823819720688" height="226.09823819720688" width="213.15844122715708"><g id="textblocktransform"><svg viewBox="0 0 213.15844122715708 226.09823819720688" height="226.09823819720688" width="213.15844122715708" id="textblock"><g><rect width="213.15844122715708" height="166.43412717165074" fill="none" stroke-width="6.945056149612478" stroke="#d94e28" data-fill-palette-color="none" data-stroke-palette-color="tertiary"></rect><rect width="213.15844122715708" height="60.66411102555613" y="166.43412717165074" fill="#d94e28" data-fill-palette-color="tertiary"></rect></g><g><svg viewBox="0 0 213.15844122715708 165.43412717165074" height="165.43412717165074" width="213.15844122715708"><g transform="matrix(1,0,0,1,18.18077526076565,18.18077526076565)"><svg width="176.7968907056258" viewBox="4.25 -35.05 48.9 35.699999999999996" height="129.07257665011943" data-palette-color="#efefef"><path d="M26.3 0L21.15 0 13.75-14.65 13.45-14.65 8.9-14.65 8.9 0 4.25 0 4.25-34.4 12.3-34.4Q24.6-34.4 24.6-24.7L24.6-24.7Q24.6-21.3 22.95-18.95 21.3-16.6 18.1-15.5L18.1-15.5 26.3 0ZM12.65-18.2Q16.25-18.2 18-19.78 19.75-21.35 19.75-24.7L19.75-24.7Q19.75-27.85 17.98-29.35 16.2-30.85 12.2-30.85L12.2-30.85 8.9-30.85 8.9-18.2 12.65-18.2ZM43.45-35.05Q46.35-35.05 48.52-34.13 50.7-33.2 52.8-31.3L52.8-31.3 50.3-28.7Q48.6-30.1 47.05-30.73 45.5-31.35 43.55-31.35L43.55-31.35Q39.65-31.35 37.15-28.03 34.65-24.7 34.65-17.25L34.65-17.25Q34.65-9.65 36.75-6.38 38.85-3.1 43.05-3.1L43.05-3.1Q46.15-3.1 48.65-4.6L48.65-4.6 48.65-15.35 43.4-15.35 42.9-19 53.15-19 53.15-2.45Q48.4 0.65 43.05 0.65L43.05 0.65Q36.65 0.65 33.2-3.83 29.75-8.3 29.75-17.3L29.75-17.3Q29.75-23.1 31.6-27.1 33.45-31.1 36.57-33.08 39.7-35.05 43.45-35.05L43.45-35.05Z" opacity="1" transform="matrix(1,0,0,1,0,0)" fill="#efefef" class="wordmark-text-0" data-fill-palette-color="quaternary" id="text-0"></path></svg></g></svg></g><g transform="matrix(1,0,0,1,0,165.43412717165074)"><svg viewBox="0 0 213.15844122715708 60.66411102555613" height="60.66411102555613" width="213.15844122715708"><g transform="matrix(1,0,0,1,20,3.2)"><svg width="173.15844122715708" viewBox="3 -34.55 110.25 34.55" height="54.26411102555613" data-palette-color="#efefef"><path d="M10.7-34.55Q15.05-34.55 18.23-33.23 21.4-31.9 23.38-28.13 25.35-24.35 25.35-17.45L25.35-17.45Q25.35-7.7 21.48-3.85 17.6 0 11.35 0L11.35 0 3 0 3-34.55 10.7-34.55ZM11.65-29.8L9.35-29.8 9.35-4.75 11.7-4.75Q13.95-4.75 15.48-5.8 17-6.85 17.88-9.65 18.75-12.45 18.75-17.45L18.75-17.45Q18.75-22.55 17.82-25.25 16.9-27.95 15.38-28.88 13.85-29.8 11.65-29.8L11.65-29.8ZM50.28-34.55L67.43-34.55 66.78-29.8 56.63-29.8 56.63-19.9 65.48-19.9 65.48-15.2 56.63-15.2 56.63-4.8 67.43-4.8 67.43 0 50.28 0 50.28-34.55ZM107-34.55L113.25-34.55 105.25 0 97.3 0 89-34.55 95.45-34.55 101.35-5.6 107-34.55Z" opacity="1" transform="matrix(1,0,0,1,0,0)" fill="#efefef" class="slogan-text-1" data-fill-palette-color="quaternary" id="text-1"></path></svg></g></svg></g></svg></g></svg></g><g transform="matrix(1,0,0,1,40.713262274387006,0)"><svg viewBox="0 0 131.73191667838307 134.86213935261318" height="134.86213935261318" width="131.73191667838307"><g><svg xmlns="http://www.w3.org/2000/svg" xmlns:xlink="http://www.w3.org/1999/xlink" version="1.1" x="0" y="0" viewBox="7.026215339073503 5.009882902376047 87.99907710213863 90.09011709762395" style="enable-background:new 0 0 100 100;" xml:space="preserve" height="134.86213935261318" width="131.73191667838307" class="icon-icon-0" data-fill-palette-color="quaternary" id="icon-0"><path d="M53.2 91.3l-39.9 0c0 0-1.4-0.1-2-0.9-0.6-0.8-0.4-2.2-0.1-3.2l12.9-38.8c0.2-0.5 0.6-0.8 1.2-0.8h1c3.2 9.5 8.5 20 17.2 30.4 0.8 1.3 2.2 2.1 3.8 2.1 0.4 0 0.8-0.1 1.2-0.2l2.8-0.8c1.1-0.3 2.1-1 2.6-2 0.6-1 0.7-2.1 0.4-3.2L34 8c-0.7-2.2-3.1-3.5-5.4-2.8l-2.8 0.8c-1.1 0.3-2.1 1-2.6 2-0.4 0.7-0.6 1.4-0.5 2.2-0.3 1.8-2.7 15.6 2.5 33.8-2.2 0.1-4 1.4-4.7 3.4l-13 38.8c-0.8 2.6-0.6 4.8 0.7 6.4 1.7 2.3 4.7 2.4 5.1 2.5h40c1.1 0 2-0.8 2-1.9C55.2 92.1 54.3 91.3 53.2 91.3zM26.6 9.7c0-0.1 0.1-0.2 0.3-0.2l2.8-0.8c0 0 0.1 0 0.1 0 0.2 0 0.4 0.1 0.5 0.3l20.3 66c0 0.2 0 0.3 0 0.4 0 0.1-0.1 0.2-0.3 0.2l-2.8 0.8c-0.3 0.1-0.5-0.1-0.6-0.3l-20.3-66C26.5 9.9 26.5 9.8 26.6 9.7zM39.8 66.7c-4.7-7.3-7.9-14.5-10-21.1 0-0.2-0.1-0.4-0.2-0.6-2.9-9.5-3.7-17.9-3.8-24L39.8 66.7zM93.7 91.1l-31.1-11c-1-0.4-2.2 0.2-2.6 1.2-0.4 1 0.2 2.2 1.2 2.6l0.7 0.2c-1.5 1.1-2.5 2.9-2.5 4.9 0 3.3 2.7 6 6 6s6-2.7 6-6c0-0.5-0.1-1.1-0.2-1.6l21.1 7.5C92.5 95 92.8 95 93 95c0.8 0 1.6-0.5 1.9-1.3C95.3 92.6 94.7 91.5 93.7 91.1zM65.4 91c-1.1 0-2-0.9-2-2 0-1.1 0.9-2 2-2s2 0.9 2 2C67.4 90.1 66.5 91 65.4 91z" fill="#efefef" data-fill-palette-color="quaternary"></path></svg></g></svg></g><g></g></svg></g></svg></g></svg></g><defs></defs></svg><rect width="333.90454557049503" height="333.90454557049503" fill="none" stroke="none" visibility="hidden"></rect></g></svg></g></svg>